<svg width="92" height="34" viewBox="0 0 92 34" fill="none" xmlns="http://www.w3.org/2000/svg">
<path d="M4.92799 23.304L5.12 33H0.175995L0.415995 23.736L0.175995 2.18398H5.168L4.92799 23.304ZM10.448 16.68C14.16 21.672 18.4 26.76 23.168 31.944L23.12 32.52C21.712 32.904 20.128 33.208 18.368 33.432L17.744 33.144C12.88 27.192 8.752 21.784 5.35999 16.92V16.584L14.96 4.96798L16.88 2.18398H22.304L10.448 16.68Z" fill="#121212"/>
<path d="M33.9541 10.44C36.1621 10.44 37.9061 10.968 39.1861 12.024C40.4661 13.08 41.1061 14.552 41.1061 16.44C41.1061 17.016 41.0101 18.936 40.8181 22.2C40.6261 25.4 40.5301 27.272 40.5301 27.816C40.5301 28.424 40.6261 28.856 40.8181 29.112C41.0421 29.336 41.4101 29.448 41.9221 29.448C42.2421 29.448 42.7221 29.384 43.3621 29.256L43.7941 29.592L43.3141 32.28C42.3861 32.856 41.3781 33.208 40.2901 33.336C39.2981 33.24 38.4981 32.888 37.8901 32.28C37.2821 31.64 36.9141 30.808 36.7861 29.784H36.4501C34.8181 31.512 33.1541 32.712 31.4581 33.384C29.2501 33.352 27.5061 32.776 26.2261 31.656C24.9781 30.536 24.3541 29.016 24.3541 27.096C24.3541 24.248 25.9061 22.472 29.0101 21.768L36.5941 20.088L36.6421 17.496C36.6421 16.312 36.3381 15.416 35.7301 14.808C35.1541 14.2 34.3061 13.896 33.1861 13.896C32.0981 13.896 31.0101 14.152 29.9221 14.664C28.8341 15.144 27.6341 15.912 26.3221 16.968L25.9381 16.728L25.3141 13.32C28.1301 11.4 31.0101 10.44 33.9541 10.44ZM30.3541 24.408C29.7781 24.536 29.3621 24.76 29.1061 25.08C28.8501 25.368 28.7221 25.832 28.7221 26.472C28.7221 27.432 28.9781 28.184 29.4901 28.728C30.0341 29.272 30.7541 29.544 31.6501 29.544C33.1541 29.544 34.7541 28.568 36.4501 26.616L36.5941 22.92L30.3541 24.408Z" fill="#121212"/>
<path d="M68.933 29.592L68.501 32.28C67.445 32.888 66.405 33.24 65.381 33.336C64.421 33.176 63.653 32.84 63.077 32.328C62.533 31.784 62.117 30.984 61.829 29.928H61.493C59.605 31.624 57.685 32.744 55.733 33.288C53.333 33.288 51.493 32.728 50.213 31.608C48.933 30.488 48.309 28.888 48.341 26.808L48.437 20.808L48.245 11.208L53.093 10.776L52.853 25.464C52.821 26.648 53.077 27.576 53.621 28.248C54.197 28.92 55.045 29.256 56.165 29.256C57.861 29.256 59.605 28.456 61.397 26.856V11.208L66.053 10.776L65.717 27.864C65.717 28.44 65.813 28.856 66.005 29.112C66.197 29.336 66.533 29.448 67.013 29.448C67.397 29.448 67.893 29.384 68.501 29.256L68.933 29.592Z" fill="#121212"/>
<path d="M81.2041 10.44C83.4121 10.44 85.1561 10.968 86.4361 12.024C87.7161 13.08 88.3561 14.552 88.3561 16.44C88.3561 17.016 88.2601 18.936 88.0681 22.2C87.8761 25.4 87.7801 27.272 87.7801 27.816C87.7801 28.424 87.8761 28.856 88.0681 29.112C88.2921 29.336 88.6601 29.448 89.1721 29.448C89.4921 29.448 89.9721 29.384 90.6121 29.256L91.0441 29.592L90.5641 32.28C89.6361 32.856 88.6281 33.208 87.5401 33.336C86.5481 33.24 85.7481 32.888 85.1401 32.28C84.5321 31.64 84.1641 30.808 84.0361 29.784H83.7001C82.0681 31.512 80.4041 32.712 78.7081 33.384C76.5001 33.352 74.7561 32.776 73.4761 31.656C72.2281 30.536 71.6041 29.016 71.6041 27.096C71.6041 24.248 73.1561 22.472 76.2601 21.768L83.8441 20.088L83.8921 17.496C83.8921 16.312 83.5881 15.416 82.9801 14.808C82.4041 14.2 81.5561 13.896 80.4361 13.896C79.3481 13.896 78.2601 14.152 77.1721 14.664C76.0841 15.144 74.8841 15.912 73.5721 16.968L73.1881 16.728L72.5641 13.32C75.3801 11.4 78.2601 10.44 81.2041 10.44ZM77.6041 24.408C77.0281 24.536 76.6121 24.76 76.3561 25.08C76.1001 25.368 75.9721 25.832 75.9721 26.472C75.9721 27.432 76.2281 28.184 76.7401 28.728C77.2841 29.272 78.0041 29.544 78.9001 29.544C80.4041 29.544 82.0041 28.568 83.7001 26.616L83.8441 22.92L77.6041 24.408ZM88.5961 1.79998V2.23198L85.4761 5.92798L84.9961 6.16798C84.4201 6.07198 83.1241 5.75198 81.1081 5.20798C79.2201 4.66398 78.0361 4.39198 77.5561 4.39198C77.2361 4.39198 76.9321 4.51998 76.6441 4.77598C76.3561 5.03198 75.9561 5.43198 75.4441 5.97598L74.7241 6.74398H74.2441L72.7561 5.20798V4.77598L75.8761 1.07998L76.4041 0.887978C77.2681 1.01598 78.5801 1.31998 80.3401 1.79998C82.2281 2.34398 83.3961 2.61598 83.8441 2.61598C84.1641 2.61598 84.4841 2.48798 84.8041 2.23198C85.1241 1.94398 85.4761 1.59198 85.8601 1.17598C86.2441 0.759976 86.5161 0.455976 86.6761 0.263977H87.1561L88.5961 1.79998Z" fill="#121212"/>
</svg>
