<svg width="24" height="24" viewBox="0 0 24 24" fill="none" xmlns="http://www.w3.org/2000/svg">
<path d="M11.875 20C11.9417 20 12.0083 19.9833 12.075 19.95C12.1417 19.9167 12.1917 19.8833 12.225 19.85L20.425 11.65C20.625 11.45 20.7708 11.225 20.8625 10.975C20.9542 10.725 21 10.475 21 10.225C21 9.95833 20.9542 9.70417 20.8625 9.4625C20.7708 9.22083 20.625 9.00833 20.425 8.825L16.175 4.575C15.9917 4.375 15.7792 4.22917 15.5375 4.1375C15.2958 4.04583 15.0417 4 14.775 4C14.525 4 14.275 4.04583 14.025 4.1375C13.775 4.22917 13.55 4.375 13.35 4.575L13.075 4.85L14.925 6.725C15.175 6.95833 15.3583 7.225 15.475 7.525C15.5917 7.825 15.65 8.14167 15.65 8.475C15.65 9.175 15.4125 9.7625 14.9375 10.2375C14.4625 10.7125 13.875 10.95 13.175 10.95C12.8417 10.95 12.5208 10.8917 12.2125 10.775C11.9042 10.6583 11.6333 10.4833 11.4 10.25L9.525 8.4L5.15 12.775C5.1 12.825 5.0625 12.8792 5.0375 12.9375C5.0125 12.9958 5 13.0583 5 13.125C5 13.2583 5.05 13.3792 5.15 13.4875C5.25 13.5958 5.36666 13.65 5.5 13.65C5.56666 13.65 5.63333 13.6333 5.7 13.6C5.76666 13.5667 5.81666 13.5333 5.85 13.5L9.25 10.1L10.65 11.5L7.275 14.9C7.225 14.95 7.1875 15.0042 7.1625 15.0625C7.1375 15.1208 7.125 15.1833 7.125 15.25C7.125 15.3833 7.175 15.5 7.275 15.6C7.375 15.7 7.49166 15.75 7.625 15.75C7.69166 15.75 7.75833 15.7333 7.825 15.7C7.89166 15.6667 7.94166 15.6333 7.975 15.6L11.375 12.225L12.775 13.625L9.4 17.025C9.35 17.0583 9.3125 17.1083 9.2875 17.175C9.2625 17.2417 9.25 17.3083 9.25 17.375C9.25 17.5083 9.3 17.625 9.4 17.725C9.5 17.825 9.61666 17.875 9.75 17.875C9.81666 17.875 9.87916 17.8625 9.9375 17.8375C9.99583 17.8125 10.05 17.775 10.1 17.725L13.5 14.35L14.9 15.75L11.5 19.15C11.45 19.2 11.4125 19.2542 11.3875 19.3125C11.3625 19.3708 11.35 19.4333 11.35 19.5C11.35 19.6333 11.4042 19.75 11.5125 19.85C11.6208 19.95 11.7417 20 11.875 20ZM11.85 22C11.2333 22 10.6875 21.7958 10.2125 21.3875C9.7375 20.9792 9.45833 20.4667 9.375 19.85C8.80833 19.7667 8.33333 19.5333 7.95 19.15C7.56666 18.7667 7.33333 18.2917 7.25 17.725C6.68333 17.6417 6.2125 17.4042 5.8375 17.0125C5.4625 16.6208 5.23333 16.15 5.15 15.6C4.51666 15.5167 4 15.2417 3.6 14.775C3.2 14.3083 3 13.7583 3 13.125C3 12.7917 3.0625 12.4708 3.1875 12.1625C3.3125 11.8542 3.49166 11.5833 3.725 11.35L9.525 5.575L12.8 8.85C12.8333 8.9 12.8833 8.9375 12.95 8.9625C13.0167 8.9875 13.0833 9 13.15 9C13.3 9 13.425 8.95417 13.525 8.8625C13.625 8.77083 13.675 8.65 13.675 8.5C13.675 8.43333 13.6625 8.36667 13.6375 8.3C13.6125 8.23333 13.575 8.18333 13.525 8.15L9.95 4.575C9.76666 4.375 9.55416 4.22917 9.3125 4.1375C9.07083 4.04583 8.81666 4 8.55 4C8.3 4 8.05 4.04583 7.8 4.1375C7.55 4.22917 7.325 4.375 7.125 4.575L3.6 8.125C3.45 8.275 3.325 8.45 3.225 8.65C3.125 8.85 3.05833 9.05 3.025 9.25C2.99166 9.45 2.99166 9.65417 3.025 9.8625C3.05833 10.0708 3.125 10.2667 3.225 10.45L1.775 11.9C1.49166 11.5167 1.28333 11.0958 1.15 10.6375C1.01666 10.1792 0.966665 9.71667 0.999998 9.25C1.03333 8.78333 1.15 8.32917 1.35 7.8875C1.55 7.44583 1.825 7.05 2.175 6.7L5.7 3.175C6.1 2.79167 6.54583 2.5 7.0375 2.3C7.52916 2.1 8.03333 2 8.55 2C9.06666 2 9.57083 2.1 10.0625 2.3C10.5542 2.5 10.9917 2.79167 11.375 3.175L11.65 3.45L11.925 3.175C12.325 2.79167 12.7708 2.5 13.2625 2.3C13.7542 2.1 14.2583 2 14.775 2C15.2917 2 15.7958 2.1 16.2875 2.3C16.7792 2.5 17.2167 2.79167 17.6 3.175L21.825 7.4C22.2083 7.78333 22.5 8.225 22.7 8.725C22.9 9.225 23 9.73333 23 10.25C23 10.7667 22.9 11.2708 22.7 11.7625C22.5 12.2542 22.2083 12.6917 21.825 13.075L13.625 21.25C13.3917 21.4833 13.1208 21.6667 12.8125 21.8C12.5042 21.9333 12.1833 22 11.85 22Z" fill="url(#paint0_linear_210_629)"/>
<defs>
<linearGradient id="paint0_linear_210_629" x1="11.995" y1="2" x2="11.995" y2="22" gradientUnits="userSpaceOnUse">
<stop stop-color="#4552C8"/>
<stop offset="0.640625" stop-color="#4589C8"/>
</linearGradient>
</defs>
</svg>
